#!OML:ASF F:\VICON\USERDATA\INSTALL\rory3\rory3.ASF
:FULLY-SPECIFIED
:DEGREES
126
root -4.7577 17.9317 -0.190451 -5.01986 40.7382 -3.5355
lowerback 11.7998 1.79093 2.71405
upperback 1.78453 2.83974 1.66631
thorax -4.69557 1.38223 -0.230551
lowerneck -13.2493 -6.76037 -13.6958
upperneck 38.2493 -7.86531 6.53016
head 17.0624 -4.14421 3.97249
rclavicle 1.17954e-013 -1.11319e-014
rhumerus -30.796 -17.0396 -75.215
rradius 29.7145
rwrist 6.21937
rhand -16.3595 7.69445
rfingers 7.12502
rthumb 9.85332 -22.055
lclavicle 1.17954e-013 -1.11319e-014
lhumerus -37.8673 9.99682 80.109
lradius 32.1416
lwrist -9.64569
lhand -16.078 26.0459
lfingers 7.12502
lthumb 10.1249 55.7823
rfemur -3.32957 0.162546 27.4279
rtibia 24.6251
rfoot -13.293 -5.40839
rtoes 10.5789
lfemur -19.7377 0.977348 -14.2834
ltibia 52.0342
lfoot -4.32428 -4.49427
ltoes -6.28525
127
root -4.68504 17.916 -0.10555 -5.01609 40.6579 -3.65219
lowerback 11.8591 1.84659 2.93501
upperback 1.69373 2.94063 1.57274
thorax -4.80545 1.42451 -0.471422
lowerneck -12.9938 -6.70598 -13.6263
upperneck 38.2515 -7.88988 6.67604
head 17.0048 -4.12772 4.02924
rclavicle 4.05024e-015 3.18055e-015
rhumerus -30.6646 -16.9286 -75.3304
rradius 29.9696
rwrist 6.09816
rhand -16.222 7.79229
rfingers 7.12502
rthumb 9.98602 -21.9508
lclavicle 4.05024e-015 3.18055e-015
lhumerus -37.9435 8.45984 81.0099
lradius 32.269
lwrist -5.2144
lhand -21.523 26.4185
lfingers 7.12502
lthumb 4.86932 56.3425
rfemur -2.99137 0.0825204 27.5266
rtibia 24.5966
rfoot -13.7388 -5.33247
rtoes 10.6466
lfemur -20.2964 1.11663 -14.2821
ltibia 50.5551
lfoot -4.95303 -4.04036
ltoes -6.54936
128
root -4.61206 17.9107 -0.0164301 -4.85409 40.5641 -3.61237
lowerback 11.7886 1.91451 2.96853
upperback 1.65508 3.0294 1.51969
thorax -4.79989 1.46668 -0.557209
lowerneck -12.9269 -6.68279 -13.6278
upperneck 38.2489 -7.86543 6.69322
head 16.9836 -4.11582 4.04372
rclavicle -6.09523e-014 -2.5842e-014
rhumerus -30.3739 -16.6971 -75.3624
rradius 30.201
rwrist 5.76375
rhand -16.088 8.13348
rfingers 7.12502
rthumb 10.1152 -21.6034
lclavicle -6.09523e-014 -2.5842e-014
lhumerus -37.9276 8.42429 80.9677
lradius 32.3924
lwrist -5.7585
lhand -20.2613 27.1499
lfingers 7.12502
lthumb 6.08753 57.0425
rfemur -2.66242 0.014809 27.4977
rtibia 24.5072
rfoot -14.1456 -5.30138
rtoes 10.1413
lfemur -20.8322 1.15798 -14.3485
ltibia 48.8876
lfoot -5.42826 -3.64972
ltoes -5.43166
129
root -4.53872 17.9087 0.0707532 -4.6763 40.4488 -3.49526
lowerback 11.7621 1.9844 2.9349
upperback 1.62199 3.11391 1.46544
thorax -4.81621 1.50759 -0.607554
lowerneck -12.8063 -6.66654 -13.5638
upperneck 38.1609 -7.87568 6.69891
head 16.9016 -4.11032 4.03174
rclavicle 1.36416e-014 -7.55382e-015
rhumerus -30.1291 -16.3024 -75.4561
rradius 30.5018
rwrist 5.49286
rhand -16.277 8.22019
rfingers 7.12502
rthumb 9.93289 -21.5255
lclavicle 1.36416e-014 -7.55382e-015
lhumerus -37.8994 8.57341 80.882
lradius 32.3282
lwrist -6.06913
lhand -19.8035 27.1881
lfingers 7.12502
lthumb 6.52948 57.0674
rfemur -2.24066 0.0374638 27.4241
rtibia 24.3283
rfoot -14.3857 -5.40431
rtoes 9.30491
lfemur -21.2406 1.03049 -14.4765
ltibia 46.9928
lfoot -5.60074 -3.10462
ltoes -3.78368
130
root -4.46346 17.9098 0.158714 -4.55269 40.3203 -3.45292
lowerback 11.7571 2.07329 2.9442
upperback 1.57401 3.23101 1.42219
thorax -4.85741 1.56331 -0.676669
lowerneck -12.7177 -6.66776 -13.4051
upperneck 38.1929 -7.90063 6.61246
head 16.8836 -4.10915 3.9627
rclavicle 1.41883e-014 8.54774e-015
rhumerus -29.9493 -16.0754 -75.5267
rradius 30.7571
rwrist 5.52846
rhand -16.6287 8.06593
rfingers 7.12502
rthumb 9.59358 -21.6956
lclavicle 1.41883e-014 8.54774e-015
lhumerus -37.8602 8.72327 80.8201
lradius 32.181
lwrist -6.18243
lhand -19.5643 26.883
lfingers 7.12502
lthumb 6.76045 56.7551
rfemur -1.76751 -0.000526155 27.4092
rtibia 24.0763
rfoot -14.6138 -5.48358
rtoes 7.87672
lfemur -21.5233 1.00944 -14.5555
ltibia 44.8838
lfoot -5.63625 -2.63053
ltoes -3.64121
131
root -4.38812 17.9104 0.244986 -4.34834 40.2131 -3.40042
lowerback 11.7076 2.16229 2.99065
upperback 1.53077 3.34952 1.35422
thorax -4.86494 1.61941 -0.790419
lowerneck -12.7193 -6.653 -13.2607
upperneck 38.215 -7.89517 6.55387
head 16.8808 -4.09247 3.91285
rclavicle -2.52457e-014 -5.96354e-016
rhumerus -29.6924 -16.1103 -75.5221
rradius 30.979
rwrist 5.58132
rhand -16.7292 8.17268
rfingers 7.12502
rthumb 9.49668 -21.5933
lclavicle -2.52457e-014 -5.96354e-016
lhumerus -37.7828 8.95086 80.691
lradius 32.0711
lwrist -6.55079
lhand -19.3396 26.4612
lfingers 7.12502
lthumb 6.97731 56.3262
rfemur -1.36671 -0.080858 27.3557
rtibia 23.7691
rfoot -14.7894 -5.49021
rtoes 6.78361
lfemur -21.7954 0.946242 -14.6509
ltibia 42.5974
lfoot -5.74024 -2.24338
ltoes -5.169
132
root -4.3107 17.9106 0.330929 -4.13831 40.1386 -3.34595
lowerback 11.5947 2.17809 3.0543
upperback 1.52935 3.36992 1.29235
thorax -4.79561 1.62888 -0.888398
lowerneck -12.813 -6.61857 -13.3279
upperneck 38.2648 -7.83952 6.63295
head 16.9325 -4.06817 3.97249
rclavicle -7.14631e-014 2.96189e-014
rhumerus -29.3722 -15.962 -75.5961
rradius 31.3135
rwrist 5.56236
rhand -16.7459 8.18256
rfingers 7.12502
rthumb 9.48052 -21.5842
lclavicle -7.14631e-014 2.96189e-014
lhumerus -37.667 9.40747 80.4344
lradius 31.8144
lwrist -7.09625
lhand -18.9692 25.5189
lfingers 7.12502
lthumb 7.33493 55.3717
rfemur -0.943284 -0.173101 27.2868
rtibia 23.4063
rfoot -14.9581 -5.36814
rtoes 6.69823
lfemur -21.9888 0.702602 -14.7182
ltibia 40.1594
lfoot -5.78386 -1.63853
ltoes -6.81026
